<svg version="1.1" id="Layer_1" xmlns="http://www.w3.org/2000/svg" xmlns:xlink="http://www.w3.org/1999/xlink" x="0px" y="0px"
	 width="100%" viewBox="0 0 1080 1920" enable-background="new 0 0 1080 1920" xml:space="preserve">
<path fill="#FFFFFF" opacity="1.000000" stroke="none" 
	d="
M606.000000,1921.000000 
	C405.500031,1921.000000 205.500076,1920.987671 5.500157,1921.093506 
	C1.751145,1921.095459 0.906671,1920.249390 0.907240,1916.500122 
	C1.003879,1279.500244 1.003835,642.500366 0.907348,5.500465 
	C0.906780,1.752559 1.749342,0.905817 5.499574,0.906868 
	C362.499481,1.006885 719.499451,1.006865 1076.499390,0.907065 
	C1080.246826,0.906017 1081.093384,1.748806 1081.092773,5.499369 
	C1080.996094,642.499268 1080.996094,1279.499146 1081.092529,1916.499023 
	C1081.093140,1920.245605 1080.252808,1921.096558 1076.500854,1921.093994 
	C919.833984,1920.984253 763.166992,1921.000000 606.000000,1921.000000 
z"/>
<path fill="#0B0B0B" opacity="1.000000" stroke="none" 
	d="
M249.647369,791.999512 
	C249.648529,745.000183 249.588028,698.500854 249.677490,652.001770 
	C249.720535,629.634827 261.865692,612.556213 282.171143,605.676575 
	C287.424072,603.896912 292.806824,603.111389 298.324005,603.111267 
	C459.988037,603.108093 621.652039,603.129700 783.316101,603.089111 
	C812.970581,603.081665 832.213806,627.386108 832.184326,652.061218 
	C831.937866,858.057556 831.942383,1064.054443 832.172791,1270.050903 
	C832.201904,1296.039795 811.443481,1319.029175 783.253906,1319.007080 
	C621.589966,1318.880249 459.925903,1318.955566 298.261871,1318.933105 
	C274.819611,1318.929810 256.546387,1304.598145 250.714386,1281.866455 
	C249.457214,1276.966309 249.665390,1271.965210 249.664734,1266.991455 
	C249.643631,1108.827515 249.647369,950.663513 249.647369,791.999512 
z"/>
<path fill="#F4F1F4" opacity="1.000000" stroke="none" 
	d="
M612.999268,1248.794678 
	C526.174683,1248.794678 439.849915,1248.889404 353.526123,1248.638794 
	C345.458069,1248.615356 340.204590,1251.707886 336.305328,1258.111816 
	C327.098022,1273.233032 322.479187,1289.945923 320.047577,1307.272461 
	C319.414703,1311.782227 318.247406,1313.451904 313.479797,1313.073975 
	C304.557556,1312.367065 295.497894,1313.936035 286.654327,1311.549194 
	C268.067719,1306.532959 255.926880,1290.719604 255.389481,1270.807007 
	C255.340042,1268.975098 255.375473,1267.140869 255.375458,1265.307739 
	C255.375107,1093.325317 255.375061,921.342834 255.375198,749.360413 
	C255.375214,742.600037 255.375885,742.598694 262.363647,742.598633 
	C448.344116,742.598389 634.324585,742.619934 820.304993,742.478699 
	C825.107544,742.475098 826.210022,743.566528 826.206055,748.372742 
	C826.063599,921.688293 826.088196,1095.003906 826.084229,1268.319580 
	C826.083679,1292.099731 813.138428,1308.182251 789.964722,1312.431885 
	C784.309143,1313.468994 778.345215,1312.802124 772.524536,1312.969849 
	C769.461914,1313.058228 770.292480,1310.729614 770.056763,1309.100098 
	C767.718201,1292.929199 763.620239,1277.283691 756.030212,1262.713257 
	C754.656250,1260.075806 752.944641,1257.593140 751.204224,1255.171875 
	C747.979492,1250.685547 743.728210,1248.688110 737.986145,1248.710083 
	C696.491028,1248.869019 654.994995,1248.794922 612.999268,1248.794678 
z"/>
<path fill="#F2EFF2" opacity="1.000000" stroke="none" 
	d="
M255.367401,723.997437 
	C255.367584,700.337891 255.350342,677.177612 255.372513,654.017395 
	C255.398621,626.752869 273.033295,609.096985 300.231842,609.096252 
	C460.687286,609.092041 621.142700,609.091980 781.598145,609.096436 
	C808.272583,609.097168 826.075989,626.803040 826.088745,653.336426 
	C826.101929,680.662170 826.036621,707.988159 826.163330,735.313354 
	C826.178772,738.652527 825.513733,739.828064 821.863220,739.824402 
	C718.225403,739.720032 614.587524,739.714539 510.949738,739.835815 
	C506.890259,739.840576 506.425568,738.331970 506.438538,734.902222 
	C506.551147,705.077576 506.518158,675.252380 506.482697,645.427307 
	C506.478546,641.933044 506.413727,638.413330 505.999512,634.950562 
	C505.153412,627.877747 500.693726,623.609497 493.632751,622.864197 
	C491.484833,622.637451 489.312317,622.556335 487.151031,622.555786 
	C423.002197,622.540222 358.853333,622.543091 294.704498,622.543396 
	C293.704773,622.543396 292.704468,622.524841 291.705414,622.551147 
	C280.896667,622.835693 275.952942,627.830078 275.945374,638.639587 
	C275.923004,670.630676 275.867371,702.622192 276.046234,734.612305 
	C276.069031,738.685974 275.176117,740.260986 270.910431,739.821838 
	C267.118347,739.431396 263.235596,739.504395 259.427582,739.808350 
	C255.933945,740.087158 255.119125,738.640320 255.315094,735.488525 
	C255.542114,731.837646 255.367630,728.161743 255.367401,723.997437 
z"/>
<path fill="#D1D2D2" opacity="1.000000" stroke="none" 
	d="
M667.000244,1251.436523 
	C690.499146,1251.436646 713.499451,1251.576050 736.495911,1251.342285 
	C742.472046,1251.281494 746.687012,1253.398804 749.950928,1258.209961 
	C757.836426,1269.833130 761.620911,1283.053223 764.876404,1296.454224 
	C766.045715,1301.267822 766.999573,1306.151123 767.277161,1311.156494 
	C767.398010,1313.335205 767.051270,1314.258423 764.768372,1314.024658 
	C763.613953,1313.906494 762.437317,1314.006836 761.270691,1314.006836 
	C616.944519,1314.006836 472.618317,1314.006836 328.292145,1314.006714 
	C322.070099,1314.006714 322.035828,1314.001587 322.851501,1307.847046 
	C324.869171,1292.622681 329.230347,1278.126587 335.970947,1264.294434 
	C340.314728,1255.380615 346.281372,1251.161499 357.016510,1251.202148 
	C460.176544,1251.593872 563.338684,1251.436646 667.000244,1251.436523 
z"/>
<path fill="#F3F0F3" opacity="1.000000" stroke="none" 
	d="
M350.999573,739.646240 
	C328.179413,739.646179 305.858582,739.559875 283.539795,739.732788 
	C279.915039,739.760864 278.801117,739.012695 278.819000,735.157837 
	C278.967194,703.178040 278.834137,671.197083 278.854828,639.216431 
	C278.861298,629.171265 282.712646,625.214966 292.667908,625.208008 
	C358.129150,625.162048 423.590515,625.156250 489.051758,625.213867 
	C498.917023,625.222534 502.097076,628.185608 503.381012,637.829346 
	C503.643799,639.803040 503.770203,641.809631 503.771790,643.801147 
	C503.795929,674.116577 503.715820,704.432312 503.878510,734.746887 
	C503.899567,738.672729 502.870392,739.745972 498.912201,739.734985 
	C449.774933,739.598572 400.637207,739.646057 350.999573,739.646240 
z"/>
<path fill="#141414" opacity="1.000000" stroke="none" 
	d="
M726.428955,892.946838 
	C726.895020,893.987854 727.238525,894.715332 727.574097,895.749512 
	C739.226746,921.929565 744.722473,948.953369 744.489624,977.430847 
	C744.192993,1013.701782 734.839966,1047.294312 716.244263,1078.177246 
	C691.251526,1119.684204 655.546082,1148.489136 609.845947,1164.553223 
	C585.879028,1172.977783 560.983521,1176.546753 535.606201,1175.209229 
	C509.432434,1173.829834 484.338135,1167.702881 460.411011,1155.739624 
	C457.620911,1154.372559 455.203461,1153.161255 452.523315,1151.745605 
	C451.300018,1151.241577 450.423523,1150.747681 449.347748,1150.092285 
	C410.217407,1127.176270 381.061066,1095.499146 363.155212,1054.104614 
	C314.723663,942.141174 377.505188,813.250244 496.494110,783.556091 
	C569.974365,765.218750 634.444824,785.039001 688.249634,838.545654 
	C702.151855,852.370789 713.429382,868.193726 722.729126,885.845032 
	C724.433899,888.096985 725.002625,890.563782 726.428955,892.946838 
z"/>
<path fill="#7B797B" opacity="1.000000" stroke="none" 
	d="
M460.118622,1155.942993 
	C464.009796,1155.435303 467.033905,1158.011108 470.434967,1159.383789 
	C497.045715,1170.125488 524.714050,1175.291016 553.302124,1173.831543 
	C602.098511,1171.340820 644.779114,1153.726440 680.572571,1120.130493 
	C715.131897,1087.692749 735.468445,1047.773804 741.686707,1000.966187 
	C746.377014,965.660339 741.591980,931.324829 727.770203,898.371155 
	C727.518860,897.771667 727.343506,897.140259 727.349365,896.290039 
	C729.427490,896.106079 729.388184,897.847351 729.848816,898.906555 
	C738.867737,919.644287 744.482178,941.193359 746.101013,963.842712 
	C749.924866,1017.344727 734.778931,1064.850708 700.687805,1106.016357 
	C671.586731,1141.156494 634.395691,1163.639648 589.615234,1172.980225 
	C545.869629,1182.104858 503.672760,1177.137207 463.214874,1158.013184 
	C462.172821,1157.520508 461.202606,1156.875977 460.118622,1155.942993 
z"/>
<path fill="#7B797B" opacity="1.000000" stroke="none" 
	d="
M726.677979,892.916504 
	C724.007080,891.908630 723.723267,889.183472 722.759766,886.551636 
	C725.420959,887.527466 725.605835,890.366150 726.677979,892.916504 
z"/>
<path fill="#7B797B" opacity="1.000000" stroke="none" 
	d="
M449.238037,1150.171143 
	C450.349548,1149.671387 451.272278,1150.129150 452.162079,1151.236450 
	C450.937622,1152.149780 450.185486,1151.117065 449.238037,1150.171143 
z"/>
<path fill="#141414" opacity="1.000000" stroke="none" 
	d="
M737.413513,710.773438 
	C718.694580,702.670349 708.666504,684.949585 711.051758,664.715210 
	C713.074707,647.554321 728.043274,633.255371 746.957764,630.415344 
	C762.576477,628.070190 779.591858,636.870972 788.757263,652.079712 
	C789.782654,653.781189 790.609375,655.602356 791.558105,657.708496 
	C799.970947,679.071838 787.336975,704.872192 765.436646,711.751465 
	C756.062744,714.695801 746.891113,715.005615 737.413513,710.773438 
z"/>
<path fill="#141414" opacity="1.000000" stroke="none" 
	d="
M620.413879,712.758057 
	C602.812500,705.843262 591.080811,688.110657 592.220520,670.565918 
	C593.438538,651.816345 606.119934,636.937561 624.680237,632.481384 
	C641.382812,628.471313 659.585876,636.442749 669.637756,652.204407 
	C670.702942,653.874695 671.598328,655.653259 672.580261,657.716919 
	C679.598816,674.657471 675.890625,689.602661 663.992371,702.089600 
	C652.217407,714.447021 637.511780,718.575378 620.413879,712.758057 
z"/>
<path fill="#7B797B" opacity="1.000000" stroke="none" 
	d="
M620.116333,712.989319 
	C620.760864,711.875732 621.535645,712.270447 622.329529,712.471558 
	C638.387634,716.539612 652.457703,712.711670 663.635620,700.654175 
	C674.821472,688.588135 677.223389,674.209656 672.389893,658.316040 
	C677.006897,662.530334 677.423096,668.504456 677.554688,674.083252 
	C678.339600,707.368774 644.787109,725.191895 620.116333,712.989319 
z"/>
<path fill="#7B797B" opacity="1.000000" stroke="none" 
	d="
M737.108887,711.007324 
	C743.508667,711.131104 749.698914,713.423157 756.454407,712.380676 
	C782.475952,708.365540 797.853271,685.537231 791.375244,660.039673 
	C791.254211,659.563232 791.220642,659.064575 791.367188,658.312622 
	C796.094849,664.303162 796.718872,671.527954 795.720642,678.699768 
	C792.751282,700.033264 777.854248,713.983276 756.373047,715.610229 
	C749.711182,716.114807 743.148804,714.741577 737.108887,711.007324 
z"/>
<path fill="#CFCAC7" opacity="1.000000" stroke="none" 
	d="
M391.000000,681.987122 
	C370.861694,681.987061 351.222168,681.872314 331.585999,682.076660 
	C327.274872,682.121582 326.564362,680.744385 328.374420,677.304016 
	C330.722839,672.840454 333.647400,669.853027 339.528442,669.886658 
	C378.637360,670.110596 417.748199,670.000000 456.858398,670.005615 
	C462.906586,670.006470 467.264832,673.502197 468.630981,679.260071 
	C469.023987,680.916321 468.706146,681.876038 466.890564,681.954651 
	C465.727509,682.005005 464.561127,681.986023 463.396240,681.986084 
	C439.430817,681.987488 415.465424,681.987122 391.000000,681.987122 
z"/>
<path fill="#141414" opacity="1.000000" stroke="none" 
	d="
M377.000000,683.066711 
	C406.964111,683.066833 436.428864,683.164673 465.891602,682.962952 
	C470.369720,682.932312 471.386017,684.521912 470.816193,688.469482 
	C469.490814,697.651428 468.588104,706.892212 465.159698,715.660828 
	C463.690704,719.417969 461.497742,721.026733 457.348083,721.014832 
	C417.896454,720.901550 378.444244,720.899353 338.992706,721.022949 
	C335.122650,721.035034 332.590515,719.813904 331.194489,716.295898 
	C327.349548,706.606934 326.283234,696.352905 325.187256,686.117371 
	C324.820953,682.696289 327.390259,683.068359 329.557190,683.068115 
	C345.204803,683.066284 360.852386,683.066895 377.000000,683.066711 
z"/>
<path fill="#F4F1F4" opacity="1.000000" stroke="none" 
	d="
M636.802734,803.087158 
	C688.655945,832.009888 722.384583,874.811646 735.421204,932.390198 
	C758.393433,1033.850830 699.236633,1133.507568 600.789001,1162.749390 
	C491.625214,1195.174072 379.692352,1129.469727 354.562866,1017.835388 
	C331.315979,914.564331 394.255066,812.585510 496.959991,786.268372 
	C545.341553,773.871094 592.069275,779.718384 636.802734,803.087158 
z"/>
<path fill="#F4F1F4" opacity="1.000000" stroke="none" 
	d="
M758.899353,633.910522 
	C778.179321,637.983826 790.544678,653.803162 789.938660,673.114868 
	C789.366577,691.345154 775.639648,706.162354 756.902344,709.149170 
	C736.613342,712.383301 717.636353,697.840637 714.143066,678.513184 
	C710.319702,657.359375 723.945618,637.696411 744.692993,633.844482 
	C749.344482,632.980774 753.880859,632.552795 758.899353,633.910522 
z"/>
<path fill="#F4F1F4" opacity="1.000000" stroke="none" 
	d="
M604.306885,697.638062 
	C585.167847,673.931702 598.245605,642.179199 624.190369,635.533203 
	C644.847229,630.241760 667.537537,644.859619 671.065125,665.564331 
	C674.394714,685.106934 662.775574,701.162903 650.328613,707.067871 
	C634.396179,714.626343 617.479797,711.396729 604.306885,697.638062 
z"/>
<path fill="#F4F1F4" opacity="1.000000" stroke="none" 
	d="
M332.500916,711.298096 
	C330.522034,704.014099 329.343567,696.982178 328.472412,689.879272 
	C328.153748,687.280762 328.176971,686.004761 331.462646,686.012146 
	C375.940491,686.111755 420.418579,686.080505 464.896637,686.071289 
	C466.595123,686.070923 468.297241,685.781006 467.889801,688.513062 
	C466.645050,696.858948 465.736389,705.247009 463.025726,713.327209 
	C461.836273,716.872803 459.978516,718.066467 456.162079,718.051270 
	C417.848267,717.898132 379.532837,717.842712 341.220062,718.094543 
	C336.057800,718.128418 333.508942,716.498413 332.500916,711.298096 
z"/>
<path fill="#131415" opacity="1.000000" stroke="none" 
	d="
M687.745728,943.279053 
	C696.411926,986.617126 688.911804,1026.319214 662.958984,1061.821655 
	C640.350830,1092.748901 610.012329,1112.213257 572.182007,1119.095703 
	C508.615784,1130.660156 448.026978,1101.855591 416.926422,1045.599854 
	C415.409058,1042.855225 413.598145,1041.331665 410.557373,1040.917725 
	C408.261871,1040.605347 405.966553,1040.118530 403.746613,1039.456299 
	C396.318115,1037.240234 394.252197,1034.401001 394.252167,1026.723022 
	C394.252014,997.728333 394.411560,968.732056 394.112793,939.740479 
	C394.055481,934.178467 395.914368,931.048157 401.116028,930.372314 
	C405.356232,929.821289 406.912292,927.556702 408.446503,923.799927 
	C429.267731,872.815918 466.667938,840.916687 520.866272,831.426392 
	C597.539124,818.000732 669.686157,867.367310 687.303772,941.933960 
	C687.379761,942.255554 687.528015,942.560120 687.745728,943.279053 
z"/>
<path fill="#83A9B8" opacity="1.000000" stroke="none" 
	d="
M432.310913,929.205200 
	C431.909241,925.438843 429.343414,926.140137 427.299103,926.322754 
	C421.693268,926.823608 416.101349,927.479797 410.008026,928.127075 
	C415.819550,911.495483 424.039581,896.799927 435.160614,883.855225 
	C465.683990,848.326599 504.562897,830.364990 551.297363,832.527649 
	C620.766541,835.742310 675.821228,885.080017 686.523071,953.744568 
	C698.439392,1030.200562 648.950623,1098.038940 578.787231,1114.777100 
	C514.652954,1130.076782 451.372192,1101.603760 419.110321,1043.404175 
	C422.157898,1040.882568 425.497467,1042.721069 428.690582,1042.652588 
	C432.276489,1042.575684 433.663483,1041.630615 433.608459,1037.843384 
	C433.497955,1030.241089 433.210175,1022.623901 433.903168,1014.635864 
	C435.187134,1011.776917 436.256256,1012.947205 437.065796,1014.447083 
	C438.414978,1016.946899 438.949768,1019.783630 440.133728,1022.361694 
	C453.376160,1051.197388 474.251526,1072.104614 503.970825,1083.827393 
	C510.109802,1086.248901 510.382385,1086.102051 512.275757,1079.838745 
	C513.674072,1075.212646 515.152405,1070.602417 516.858765,1066.088135 
	C518.243774,1062.424194 517.637329,1060.488159 513.696411,1058.914673 
	C504.227997,1055.134277 495.487244,1050.095825 487.717499,1043.275024 
	C472.490051,1029.907349 462.571930,1013.368896 459.100555,993.582825 
	C453.719849,962.913879 461.467773,935.761719 483.551392,913.286072 
	C486.578003,910.205811 486.604950,908.056885 483.762207,904.916077 
	C480.304688,901.096069 476.848724,897.252747 473.586792,893.248474 
	C470.643219,889.634888 469.883911,889.655579 466.454041,892.820618 
	C454.228943,904.101746 445.550293,917.778809 439.112000,933.004395 
	C438.173615,935.223572 437.931915,937.951294 435.019470,939.050415 
	C432.735413,936.035828 434.603302,932.321045 432.310913,929.205200 
z"/>
<path fill="#F4F1F4" opacity="1.000000" stroke="none" 
	d="
M429.033295,1013.000000 
	C429.033112,1020.657227 428.975555,1027.815186 429.067841,1034.971191 
	C429.095520,1037.116211 428.875610,1038.375488 426.176117,1038.121826 
	C417.594543,1037.315430 409.055084,1036.406982 400.708160,1034.061890 
	C397.959381,1033.289551 397.098938,1031.921753 397.106415,1029.142822 
	C397.187622,998.849731 397.210907,968.556091 397.075439,938.263428 
	C397.061890,935.236511 398.433655,934.083374 400.838715,933.407043 
	C409.335297,931.018005 418.082550,930.236145 426.821045,929.372681 
	C429.763519,929.081909 428.998047,931.155457 429.007599,932.605774 
	C429.060211,940.594849 429.033234,948.584534 429.033295,956.573975 
	C429.033386,975.216003 429.033295,993.857971 429.033295,1013.000000 
z"/>
<path fill="#324A50" opacity="1.000000" stroke="none" 
	d="
M435.395508,1012.695679 
	C435.004089,1021.976990 434.819794,1030.884155 434.949799,1039.786621 
	C434.997314,1043.039917 433.939209,1044.338745 430.695648,1043.968506 
	C427.107697,1043.558838 423.502594,1043.298950 419.483398,1043.018311 
	C417.865143,1041.086914 418.984161,1040.946289 420.635254,1040.875122 
	C424.226013,1040.720459 428.891907,1042.666504 431.136383,1040.098511 
	C433.626709,1037.249146 431.954376,1032.455322 431.963409,1028.525269 
	C432.038940,995.637756 432.002380,962.750061 432.034637,929.388916 
	C437.239166,930.690491 433.894501,935.089478 434.947937,938.587219 
	C436.750275,940.728943 436.573151,942.978210 436.579834,945.106628 
	C436.644531,965.722351 436.631134,986.338257 436.594971,1006.954102 
	C436.591766,1008.781616 436.577545,1010.622253 435.395508,1012.695679 
z"/>
<path fill="#568791" opacity="1.000000" stroke="none" 
	d="
M435.327087,1013.300903 
	C435.015656,988.701294 434.967407,964.330811 434.950653,939.495605 
	C439.529572,929.643982 443.247620,919.854980 449.200256,911.158264 
	C454.492126,903.427002 460.720428,896.577515 467.361420,890.015625 
	C469.752411,887.653198 471.157715,888.292542 472.958344,890.425110 
	C477.455627,895.751282 482.033478,901.009521 486.580933,906.293274 
	C488.428497,908.439880 488.743347,910.091003 486.243439,912.400330 
	C471.144958,926.348450 461.897675,943.824646 459.434479,963.988770 
	C456.307831,989.584229 462.307770,1013.080200 479.550629,1033.199463 
	C489.557800,1044.875977 501.734192,1053.073975 515.951111,1058.464844 
	C518.748962,1059.525757 519.899048,1060.913696 518.880188,1063.949219 
	C516.608643,1070.716797 514.386169,1077.505737 512.377136,1084.354492 
	C511.393707,1087.707031 509.355286,1087.361450 506.992035,1086.444336 
	C493.904175,1081.365356 481.765045,1074.792114 470.936127,1065.630615 
	C454.233765,1051.500488 442.625000,1034.117310 435.327087,1013.300903 
z"/>
<path fill="#A5F1F4" opacity="1.000000" stroke="none" 
	d="
M650.702637,924.340942 
	C659.911377,942.923767 664.082642,962.333252 662.851379,982.554443 
	C661.373596,1006.822266 653.304260,1028.915039 638.217651,1048.238403 
	C636.126221,1050.917236 634.381226,1051.831177 631.413025,1048.991333 
	C626.256897,1044.058228 620.763428,1039.463867 615.242676,1034.933228 
	C613.412598,1033.431274 613.169250,1032.641602 614.745911,1030.675415 
	C628.060974,1014.070801 634.382202,994.843994 633.802917,973.780640 
	C633.223328,952.705750 625.846558,933.841309 611.484741,918.119263 
	C608.868042,915.254761 608.538940,913.567444 611.499268,910.858276 
	C616.532959,906.251465 621.319214,901.359985 626.009888,896.399414 
	C627.947571,894.350220 629.102173,894.328247 631.107239,896.372375 
	C639.111633,904.532654 645.425415,913.834290 650.702637,924.340942 
z"/>
</svg>